<?xml version="1.0" encoding="UTF-8" standalone="no"?>
<svg
   xmlns:dc="http://purl.org/dc/elements/1.1/"
   xmlns:cc="http://creativecommons.org/ns#"
   xmlns:rdf="http://www.w3.org/1999/02/22-rdf-syntax-ns#"
   xmlns:svg="http://www.w3.org/2000/svg"
   xmlns="http://www.w3.org/2000/svg"
   xmlns:sodipodi="http://sodipodi.sourceforge.net/DTD/sodipodi-0.dtd"
   xmlns:inkscape="http://www.inkscape.org/namespaces/inkscape"
   width="93.259354mm"
   height="17.569349mm"
   viewBox="0 0 93.259354 17.569349"
   version="1.1"
   id="svg8"
   inkscape:version="1.0.2-2 (e86c870879, 2021-01-15)"
   sodipodi:docname="ticketinglogo-blue.svg">
  <defs
     id="defs2" />
  <sodipodi:namedview
     id="base"
     pagecolor="#ffffff"
     bordercolor="#666666"
     borderopacity="1.0"
     inkscape:pageopacity="0.0"
     inkscape:pageshadow="2"
     inkscape:zoom="2.3634247"
     inkscape:cx="159.89216"
     inkscape:cy="8.6399425"
     inkscape:document-units="mm"
     inkscape:current-layer="layer1"
     inkscape:document-rotation="0"
     showgrid="false"
     fit-margin-top="0.3"
     fit-margin-right="0.3"
     fit-margin-bottom="0.3"
     fit-margin-left="0.3"
     inkscape:window-width="1600"
     inkscape:window-height="837"
     inkscape:window-x="-8"
     inkscape:window-y="-8"
     inkscape:window-maximized="1"
     showguides="true"
     inkscape:guide-bbox="true"
     inkscape:object-paths="false"
     inkscape:snap-page="false">
    <sodipodi:guide
       position="38.155116,9.9699919"
       orientation="0,-1"
       id="guide24" />
  </sodipodi:namedview>
  <metadata
     id="metadata5">
    <rdf:RDF>
      <cc:Work
         rdf:about="">
        <dc:format>image/svg+xml</dc:format>
        <dc:type
           rdf:resource="http://purl.org/dc/dcmitype/StillImage" />
        <dc:title></dc:title>
      </cc:Work>
    </rdf:RDF>
  </metadata>
  <g
     inkscape:label="Layer 1"
     inkscape:groupmode="layer"
     id="layer1"
     transform="translate(-45.424689,-143.17716)">
    <g
       style="fill:#d40000;fill-opacity:1;stroke:none;stroke-opacity:1"
       id="g844"
       transform="matrix(1.2468402,0,0,1.2468402,45.724689,140.98348)">
      <path
         clip-rule="evenodd"
         d="M 16,2 H 0 v 4 c 1.10457,0 2,0.89543 2,2 0,1.10457 -0.89543,2 -2,2 v 4 H 16 V 10 C 14.8954,10 14,9.10457 14,8 14,6.89543 14.8954,6 16,6 Z M 8,10 C 9.10457,10 10,9.10457 10,8 10,6.89543 9.10457,6 8,6 6.89543,6 6,6.89543 6,8 c 0,1.10457 0.89543,2 2,2 z"
         fill="#030708"
         fill-rule="evenodd"
         id="path833"
         style="fill:#2a4365;fill-opacity:1;stroke:none;stroke-opacity:1" />
    </g>
    <g
       aria-label="Ticketing"
       id="text22"
       style="font-size:14.8167px;line-height:1.25;font-family:Poppins;-inkscape-font-specification:Poppins;stroke-width:0.264583">
      <path
         d="m 76.894874,145.97059 v 2.02989 h -2.755906 v 8.37144 h -2.533656 v -8.37144 h -2.755906 v -2.02989 z"
         style="font-style:normal;font-variant:normal;font-weight:bold;font-stretch:normal;font-size:14.8167px;font-family:Poppins;-inkscape-font-specification:'Poppins Bold';stroke-width:0.264583"
         id="path851" />
      <path
         d="m 79.443341,147.24483 q -0.666752,0 -1.096436,-0.38523 -0.414868,-0.40005 -0.414868,-0.97791 0,-0.59266 0.414868,-0.9779 0.429684,-0.40005 1.096436,-0.40005 0.651935,0 1.066802,0.40005 0.429685,0.38524 0.429685,0.9779 0,0.57786 -0.429685,0.97791 -0.414867,0.38523 -1.066802,0.38523 z m 1.259419,0.85937 v 8.26772 h -2.533655 v -8.26772 z"
         style="font-style:normal;font-variant:normal;font-weight:bold;font-stretch:normal;font-size:14.8167px;font-family:Poppins;-inkscape-font-specification:'Poppins Bold';stroke-width:0.264583"
         id="path853" />
      <path
         d="m 82.036236,152.23806 q 0,-1.28905 0.518585,-2.25214 0.533401,-0.96309 1.466853,-1.48167 0.948269,-0.51858 2.163238,-0.51858 1.555754,0 2.592922,0.81491 1.051986,0.81492 1.377954,2.29659 h -2.69664 q -0.340784,-0.94827 -1.318686,-0.94827 -0.696385,0 -1.111253,0.54822 -0.414867,0.5334 -0.414867,1.54094 0,1.00753 0.414867,1.55575 0.414868,0.5334 1.111253,0.5334 0.977902,0 1.318686,-0.94827 h 2.69664 q -0.325968,1.45204 -1.377954,2.28178 -1.051985,0.82973 -2.592922,0.82973 -1.214969,0 -2.163238,-0.51858 -0.933452,-0.51859 -1.466853,-1.48167 -0.518585,-0.96309 -0.518585,-2.25214 z"
         style="font-style:normal;font-variant:normal;font-weight:bold;font-stretch:normal;font-size:14.8167px;font-family:Poppins;-inkscape-font-specification:'Poppins Bold';stroke-width:0.264583"
         id="path855" />
      <path
         d="m 96.556595,156.37192 -2.518839,-3.46711 v 3.46711 H 91.5041 v -10.96436 h 2.533656 v 6.06003 l 2.504022,-3.36339 h 3.126324 l -3.437475,4.14868 3.467108,4.11904 z"
         style="font-style:normal;font-variant:normal;font-weight:bold;font-stretch:normal;font-size:14.8167px;font-family:Poppins;-inkscape-font-specification:'Poppins Bold';stroke-width:0.264583"
         id="path857" />
      <path
         d="m 108.45438,152.10471 q 0,0.3556 -0.0444,0.74083 h -5.73407 q 0.0593,0.77047 0.48895,1.18534 0.44451,0.40005 1.08162,0.40005 0.94827,0 1.31869,-0.8001 h 2.69664 q -0.20743,0.81492 -0.75565,1.46685 -0.5334,0.65194 -1.34832,1.02235 -0.81492,0.37042 -1.82246,0.37042 -1.21497,0 -2.16323,-0.51858 -0.94827,-0.51859 -1.48167,-1.48167 -0.53341,-0.96309 -0.53341,-2.25214 0,-1.28905 0.51859,-2.25214 0.5334,-0.96309 1.48167,-1.48167 0.94827,-0.51858 2.17805,-0.51858 1.20016,0 2.13361,0.50376 0.93345,0.50377 1.45204,1.43722 0.5334,0.93346 0.5334,2.17806 z m -2.59293,-0.66675 q 0,-0.65194 -0.4445,-1.03717 -0.4445,-0.38524 -1.11125,-0.38524 -0.63712,0 -1.08162,0.37042 -0.42968,0.37042 -0.5334,1.05199 z"
         style="font-style:normal;font-variant:normal;font-weight:bold;font-stretch:normal;font-size:14.8167px;font-family:Poppins;-inkscape-font-specification:'Poppins Bold';stroke-width:0.264583"
         id="path859" />
      <path
         d="m 114.39586,154.2235 v 2.14842 h -1.28905 q -1.37795,0 -2.14842,-0.66675 -0.77047,-0.68157 -0.77047,-2.20769 v -3.28931 h -1.00754 v -2.10397 h 1.00754 v -2.01507 h 2.53365 v 2.01507 h 1.65947 v 2.10397 h -1.65947 v 3.31894 q 0,0.37042 0.1778,0.5334 0.1778,0.16299 0.59267,0.16299 z"
         style="font-style:normal;font-variant:normal;font-weight:bold;font-stretch:normal;font-size:14.8167px;font-family:Poppins;-inkscape-font-specification:'Poppins Bold';stroke-width:0.264583"
         id="path861" />
      <path
         d="m 117.07766,147.24483 q -0.66675,0 -1.09644,-0.38523 -0.41486,-0.40005 -0.41486,-0.97791 0,-0.59266 0.41486,-0.9779 0.42969,-0.40005 1.09644,-0.40005 0.65193,0 1.0668,0.40005 0.42969,0.38524 0.42969,0.9779 0,0.57786 -0.42969,0.97791 -0.41487,0.38523 -1.0668,0.38523 z m 1.25942,0.85937 v 8.26772 h -2.53366 v -8.26772 z"
         style="font-style:normal;font-variant:normal;font-weight:bold;font-stretch:normal;font-size:14.8167px;font-family:Poppins;-inkscape-font-specification:'Poppins Bold';stroke-width:0.264583"
         id="path863" />
      <path
         d="m 125.212,148.0153 q 1.45204,0 2.31141,0.94827 0.87418,0.93345 0.87418,2.5781 v 4.83025 h -2.51884 v -4.48946 q 0,-0.82974 -0.42968,-1.28906 -0.42969,-0.45931 -1.1557,-0.45931 -0.72602,0 -1.15571,0.45931 -0.42968,0.45932 -0.42968,1.28906 v 4.48946 h -2.53366 v -8.26772 h 2.53366 v 1.09643 q 0.38523,-0.54821 1.03717,-0.85936 0.65193,-0.32597 1.46685,-0.32597 z"
         style="font-style:normal;font-variant:normal;font-weight:bold;font-stretch:normal;font-size:14.8167px;font-family:Poppins;-inkscape-font-specification:'Poppins Bold';stroke-width:0.264583"
         id="path865" />
      <path
         d="m 133.30191,147.98567 q 0.87419,0 1.52612,0.3556 0.66676,0.3556 1.02236,0.93345 v -1.17052 h 2.53365 v 8.2529 q 0,1.14089 -0.45932,2.05952 -0.4445,0.93345 -1.37795,1.48167 -0.91863,0.54822 -2.29659,0.54822 -1.83727,0 -2.97815,-0.87419 -1.14089,-0.85936 -1.30387,-2.34103 h 2.50402 q 0.11853,0.47413 0.56303,0.74083 0.4445,0.28152 1.09644,0.28152 0.78528,0 1.2446,-0.45932 0.47414,-0.4445 0.47414,-1.43722 v -1.17052 q -0.37042,0.57785 -1.02236,0.94827 -0.65193,0.3556 -1.52612,0.3556 -1.02235,0 -1.85208,-0.51858 -0.82974,-0.5334 -1.31869,-1.49649 -0.47413,-0.9779 -0.47413,-2.25214 0,-1.27423 0.47413,-2.23732 0.48895,-0.96309 1.31869,-1.48167 0.82973,-0.51858 1.85208,-0.51858 z m 2.54848,4.25239 q 0,-0.94827 -0.53341,-1.49649 -0.51858,-0.54822 -1.27423,-0.54822 -0.75565,0 -1.28905,0.54822 -0.51859,0.5334 -0.51859,1.48167 0,0.94827 0.51859,1.51131 0.5334,0.54821 1.28905,0.54821 0.75565,0 1.27423,-0.54821 0.53341,-0.54822 0.53341,-1.49649 z"
         style="font-style:normal;font-variant:normal;font-weight:bold;font-stretch:normal;font-size:14.8167px;font-family:Poppins;-inkscape-font-specification:'Poppins Bold';stroke-width:0.264583"
         id="path867" />
    </g>
  </g>
</svg>
