<?xml version="1.0" encoding="UTF-8" standalone="no"?>
<svg
   xmlns:dc="http://purl.org/dc/elements/1.1/"
   xmlns:cc="http://creativecommons.org/ns#"
   xmlns:rdf="http://www.w3.org/1999/02/22-rdf-syntax-ns#"
   xmlns:svg="http://www.w3.org/2000/svg"
   xmlns="http://www.w3.org/2000/svg"
   xmlns:sodipodi="http://sodipodi.sourceforge.net/DTD/sodipodi-0.dtd"
   xmlns:inkscape="http://www.inkscape.org/namespaces/inkscape"
   width="85.309731mm"
   height="16.444733mm"
   viewBox="0 0 85.309731 16.444732"
   version="1.1"
   id="svg8"
   inkscape:version="1.0.2-2 (e86c870879, 2021-01-15)"
   sodipodi:docname="ticketinglogo.svg">
  <defs
     id="defs2" />
  <sodipodi:namedview
     id="base"
     pagecolor="#ffffff"
     bordercolor="#666666"
     borderopacity="1.0"
     inkscape:pageopacity="0.0"
     inkscape:pageshadow="2"
     inkscape:zoom="1.9139024"
     inkscape:cx="140.61576"
     inkscape:cy="85.732224"
     inkscape:document-units="mm"
     inkscape:current-layer="layer1"
     inkscape:document-rotation="0"
     showgrid="false"
     fit-margin-top="0.3"
     fit-margin-right="0.3"
     fit-margin-bottom="0.3"
     fit-margin-left="0.3"
     inkscape:window-width="1600"
     inkscape:window-height="837"
     inkscape:window-x="-8"
     inkscape:window-y="-8"
     inkscape:window-maximized="1" />
  <metadata
     id="metadata5">
    <rdf:RDF>
      <cc:Work
         rdf:about="">
        <dc:format>image/svg+xml</dc:format>
        <dc:type
           rdf:resource="http://purl.org/dc/dcmitype/StillImage" />
        <dc:title></dc:title>
      </cc:Work>
    </rdf:RDF>
  </metadata>
  <g
     inkscape:label="Layer 1"
     inkscape:groupmode="layer"
     id="layer1"
     transform="translate(-45.424689,-143.17716)">
    <g
       style="fill:#000080;fill-opacity:1;stroke:none;stroke-opacity:1"
       id="g844"
       transform="matrix(1.2095238,0,0,1.2095238,45.724689,141.05811)">
      <path
         clip-rule="evenodd"
         d="M 16,2 H 0 v 4 c 1.10457,0 2,0.89543 2,2 0,1.10457 -0.89543,2 -2,2 v 4 H 16 V 10 C 14.8954,10 14,9.10457 14,8 14,6.89543 14.8954,6 16,6 Z M 8,10 C 9.10457,10 10,9.10457 10,8 10,6.89543 9.10457,6 8,6 6.89543,6 6,6.89543 6,8 c 0,1.10457 0.89543,2 2,2 z"
         fill="#030708"
         fill-rule="evenodd"
         id="path833"
         style="fill:#000080;fill-opacity:1;stroke:none;stroke-opacity:1" />
    </g>
    <g
       aria-label="Ticketing"
       id="text848"
       style="font-size:14.8167px;line-height:1.25;font-family:Poppins;-inkscape-font-specification:Poppins;stroke-width:0.264583"
       transform="translate(0,1.5875)">
      <path
         d="m 76.279571,144.19192 v 2.28178 h -2.667006 v 8.08991 h -2.370672 v -8.08991 h -2.667006 v -2.28178 z"
         style="font-style:normal;font-variant:normal;font-weight:normal;font-stretch:normal;font-size:14.8167px;font-family:Gilroy-ExtraBold;-inkscape-font-specification:Gilroy-ExtraBold;stroke-width:0.264583"
         id="path886" />
      <path
         d="m 79.287346,146.11809 q -0.385234,0.38524 -0.933452,0.38524 -0.548218,0 -0.948269,-0.38524 -0.385234,-0.40005 -0.385234,-0.94826 0,-0.54822 0.385234,-0.93346 0.400051,-0.40005 0.948269,-0.40005 0.548218,0 0.933452,0.40005 0.400051,0.38524 0.400051,0.93346 0,0.54821 -0.400051,0.94826 z m -2.044705,8.44552 v -7.40835 h 2.222505 v 7.40835 z"
         style="font-style:normal;font-variant:normal;font-weight:normal;font-stretch:normal;font-size:14.8167px;font-family:Gilroy-ExtraBold;-inkscape-font-specification:Gilroy-ExtraBold;stroke-width:0.264583"
         id="path888" />
      <path
         d="m 84.650966,154.77105 q -1.689104,0 -2.815173,-1.12607 -1.111252,-1.12607 -1.111252,-2.78554 0,-1.65947 1.111252,-2.78554 1.126069,-1.12607 2.815173,-1.12607 1.066803,0 1.955805,0.51858 0.903818,0.51859 1.392769,1.37796 l -1.940987,1.12607 q -0.400051,-0.82974 -1.43722,-0.82974 -0.726018,0 -1.200153,0.48895 -0.474134,0.47414 -0.474134,1.22979 0,0.75565 0.474134,1.2446 0.474135,0.47414 1.200153,0.47414 1.051986,0 1.43722,-0.82974 l 1.940987,1.11125 q -0.488951,0.87419 -1.377953,1.39277 -0.889002,0.51859 -1.970621,0.51859 z"
         style="font-style:normal;font-variant:normal;font-weight:normal;font-stretch:normal;font-size:14.8167px;font-family:Gilroy-ExtraBold;-inkscape-font-specification:Gilroy-ExtraBold;stroke-width:0.264583"
         id="path890" />
      <path
         d="m 96.000516,154.56361 h -2.518839 l -2.370672,-3.27449 v 3.27449 H 88.8885 v -10.37169 h 2.222505 v 6.2082 l 2.222505,-3.24486 h 2.592923 l -2.69664,3.70418 z"
         style="font-style:normal;font-variant:normal;font-weight:normal;font-stretch:normal;font-size:14.8167px;font-family:Gilroy-ExtraBold;-inkscape-font-specification:Gilroy-ExtraBold;stroke-width:0.264583"
         id="path892" />
      <path
         d="m 98.35636,151.74844 q 0.385234,1.03717 1.778,1.03717 0.90382,0 1.42241,-0.56303 l 1.778,1.02235 q -1.09643,1.52612 -3.23004,1.52612 -1.866904,0 -2.992973,-1.11125 -1.111252,-1.11126 -1.111252,-2.80036 0,-1.67429 1.096435,-2.78554 1.111253,-1.12607 2.844807,-1.12607 1.615023,0 2.681823,1.12607 1.08162,1.11125 1.08162,2.78554 0,0.47413 -0.0889,0.889 z m -0.04445,-1.65947 h 3.18559 q -0.32597,-1.17052 -1.57057,-1.17052 -1.289053,0 -1.61502,1.17052 z"
         style="font-style:normal;font-variant:normal;font-weight:normal;font-stretch:normal;font-size:14.8167px;font-family:Gilroy-ExtraBold;-inkscape-font-specification:Gilroy-ExtraBold;stroke-width:0.264583"
         id="path894" />
      <path
         d="m 109.08363,149.28887 h -1.52612 v 2.62255 q 0,0.44451 0.3556,0.56304 0.3556,0.11853 1.17052,0.0741 v 2.01507 q -2.11879,0.22225 -2.93371,-0.40005 -0.81492,-0.63712 -0.81492,-2.25214 v -2.62255 h -1.18533 v -2.13361 h 1.18533 v -1.40758 l 2.22251,-0.66675 v 2.07433 h 1.52612 z"
         style="font-style:normal;font-variant:normal;font-weight:normal;font-stretch:normal;font-size:14.8167px;font-family:Gilroy-ExtraBold;-inkscape-font-specification:Gilroy-ExtraBold;stroke-width:0.264583"
         id="path896" />
      <path
         d="m 112.38773,146.11809 q -0.38523,0.38524 -0.93345,0.38524 -0.54822,0 -0.94827,-0.38524 -0.38524,-0.40005 -0.38524,-0.94826 0,-0.54822 0.38524,-0.93346 0.40005,-0.40005 0.94827,-0.40005 0.54822,0 0.93345,0.40005 0.40005,0.38524 0.40005,0.93346 0,0.54821 -0.40005,0.94826 z m -2.0447,8.44552 v -7.40835 h 2.2225 v 7.40835 z"
         style="font-style:normal;font-variant:normal;font-weight:normal;font-stretch:normal;font-size:14.8167px;font-family:Gilroy-ExtraBold;-inkscape-font-specification:Gilroy-ExtraBold;stroke-width:0.264583"
         id="path898" />
      <path
         d="m 118.53664,146.94783 q 1.18533,0 1.97062,0.81492 0.8001,0.81492 0.8001,2.25214 v 4.54872 h -2.22251 v -4.22276 q 0,-0.65193 -0.37041,-0.99271 -0.3556,-0.35561 -0.91864,-0.35561 -0.63712,0 -1.00753,0.38524 -0.37042,0.38523 -0.37042,1.14088 v 4.04496 h -2.22251 v -7.40835 h 2.22251 v 0.69639 q 0.66675,-0.90382 2.11879,-0.90382 z"
         style="font-style:normal;font-variant:normal;font-weight:normal;font-stretch:normal;font-size:14.8167px;font-family:Gilroy-ExtraBold;-inkscape-font-specification:Gilroy-ExtraBold;stroke-width:0.264583"
         id="path900" />
      <path
         d="m 128.27118,147.15526 h 2.16324 v 7.03794 q 0,1.74837 -1.14089,2.63737 -1.14088,0.90382 -2.77072,0.90382 -2.50402,0 -3.51156,-1.79282 l 1.89654,-1.09644 q 0.50377,0.93345 1.6891,0.93345 0.78529,0 1.22979,-0.41486 0.4445,-0.40006 0.4445,-1.17052 v -0.68157 q -0.77047,0.96308 -2.16324,0.96308 -1.55575,0 -2.60774,-1.09643 -1.03717,-1.11125 -1.03717,-2.66701 0,-1.55575 1.03717,-2.65219 1.05199,-1.11125 2.60774,-1.11125 1.39277,0 2.16324,0.96309 z m -3.08187,4.80061 q 0.50376,0.47414 1.28905,0.47414 0.78528,0 1.28905,-0.47414 0.50377,-0.47413 0.50377,-1.2446 0,-0.77047 -0.50377,-1.2446 -0.50377,-0.47414 -1.28905,-0.47414 -0.78529,0 -1.28905,0.47414 -0.50377,0.47413 -0.50377,1.2446 0,0.77047 0.50377,1.2446 z"
         style="font-style:normal;font-variant:normal;font-weight:normal;font-stretch:normal;font-size:14.8167px;font-family:Gilroy-ExtraBold;-inkscape-font-specification:Gilroy-ExtraBold;stroke-width:0.264583"
         id="path902" />
    </g>
  </g>
</svg>
